<svg xmlns="http://www.w3.org/2000/svg" xmlns:xlink="http://www.w3.org/1999/xlink" width="800" zoomAndPan="magnify" viewBox="0 0 600 149.999998" height="200" preserveAspectRatio="xMidYMid meet" version="1.0"><defs><g/><clipPath id="id1"><path d="M 12.347656 25.402344 L 170.597656 25.402344 L 170.597656 124.402344 L 12.347656 124.402344 Z M 12.347656 25.402344 " clip-rule="nonzero"/></clipPath></defs><g fill="#6255a5" fill-opacity="1"><g transform="translate(184.409049, 105.228774)"><g><path d="M 5.5625 -64.875 L 49.46875 -64.875 L 49.46875 -55.125 L 17.359375 -55.125 L 17.359375 -37.3125 L 41.203125 -37.3125 L 41.203125 -27.5625 L 17.359375 -27.5625 L 17.359375 -9.75 L 49.46875 -9.75 L 49.46875 0 L 5.5625 0 Z M 5.5625 -64.875 "/></g></g></g><g fill="#6255a5" fill-opacity="1"><g transform="translate(236.654203, 105.228774)"><g><path d="M 3.71875 -32.484375 L 34.53125 -32.484375 L 34.53125 -23.109375 L 3.71875 -23.109375 Z M 3.71875 -32.484375 "/></g></g></g><g fill="#6255a5" fill-opacity="1"><g transform="translate(274.886881, 105.228774)"><g><path d="M 5.5625 -64.875 L 17.359375 -64.875 L 17.359375 -9.75 L 48.546875 -9.75 L 48.546875 0 L 5.5625 0 Z M 5.5625 -64.875 "/></g></g></g><path fill="#9aedb6" d="M 325.273438 110.5625 L 377.144531 110.5625 L 377.144531 119.453125 L 325.273438 119.453125 Z M 325.273438 110.5625 " fill-opacity="1" fill-rule="nonzero"/><g fill="#9aedb6" fill-opacity="1"><g transform="translate(325.272906, 105.228774)"><g><path d="M 4.828125 -64.875 L 49.84375 -64.875 L 49.84375 -53.09375 L 18.9375 -53.09375 L 18.9375 -38.046875 L 41.671875 -38.046875 L 41.671875 -26.734375 L 18.9375 -26.734375 L 18.9375 -11.78125 L 49.84375 -11.78125 L 49.84375 0 L 4.828125 0 Z M 4.828125 -64.875 "/></g></g></g><g fill="#6255a5" fill-opacity="1"><g transform="translate(377.145258, 105.228774)"><g><path d="M 29.703125 -64.875 L 41.109375 -64.875 L 67.015625 0 L 55.03125 0 L 49.09375 -14.9375 L 21.625 -14.9375 L 15.78125 0 L 3.71875 0 Z M 45.84375 -24.6875 L 35.359375 -52.25 L 24.875 -24.6875 Z M 45.84375 -24.6875 "/></g></g></g><g fill="#6255a5" fill-opacity="1"><g transform="translate(447.857167, 105.228774)"><g><path d="M 5.5625 -64.875 L 32.671875 -64.875 C 39.847656 -64.875 45.382812 -63.109375 49.28125 -59.578125 C 53.175781 -56.054688 55.125 -50.953125 55.125 -44.265625 C 55.125 -39.503906 53.945312 -35.453125 51.59375 -32.109375 C 49.25 -28.765625 45.910156 -26.382812 41.578125 -24.96875 L 54.765625 0 L 42.6875 0 L 30.171875 -23.765625 L 17.359375 -23.765625 L 17.359375 0 L 5.5625 0 Z M 30.53125 -33.5 C 34.375 -33.5 37.46875 -34.394531 39.8125 -36.1875 C 42.164062 -37.988281 43.34375 -40.679688 43.34375 -44.265625 C 43.34375 -51.503906 39.070312 -55.125 30.53125 -55.125 L 17.359375 -55.125 L 17.359375 -33.5 Z M 30.53125 -33.5 "/></g></g></g><g fill="#6255a5" fill-opacity="1"><g transform="translate(506.690961, 105.228774)"><g><path d="M 5.5625 -64.875 L 16.703125 -64.875 L 47.0625 -19.671875 L 47.0625 -64.875 L 58.84375 -64.875 L 58.84375 0 L 47.703125 0 L 17.359375 -45.296875 L 17.359375 0 L 5.5625 0 Z M 5.5625 -64.875 "/></g></g></g><path fill="#6255a5" d="M 165.917969 123.488281 L 17.027344 123.488281 C 15.011719 123.488281 13.367188 121.84375 13.367188 119.835938 L 13.367188 43.484375 C 13.367188 41.476562 15.011719 39.832031 17.027344 39.832031 L 165.917969 39.832031 C 167.933594 39.832031 169.582031 41.476562 169.582031 43.484375 L 169.582031 119.835938 C 169.582031 121.84375 167.933594 123.488281 165.917969 123.488281 Z M 165.917969 123.488281 " fill-opacity="1" fill-rule="nonzero"/><path fill="#f8f0e1" d="M 164.636719 36.726562 C 164.636719 65.769531 164.636719 122.027344 164.636719 122.027344 C 164.636719 122.027344 151.085938 118.921875 127.828125 118.554688 C 109.695312 118.191406 90.464844 123.121094 90.464844 123.121094 C 90.464844 123.121094 79.660156 118.921875 56.953125 118.191406 C 33.695312 117.460938 18.308594 122.574219 18.308594 122.574219 C 18.308594 122.574219 18.308594 65.769531 18.308594 36.726562 C 19.59375 36.359375 21.242188 35.8125 23.070312 35.449219 C 23.070312 34.351562 23.070312 33.253906 23.070312 32.160156 C 30.398438 29.96875 42.117188 27.046875 56.769531 27.046875 C 71.96875 27.046875 84.058594 29.785156 91.382812 32.160156 C 91.382812 32.160156 110.429688 27.046875 125.261719 27.046875 C 140.464844 27.046875 152.550781 29.785156 159.875 32.160156 C 159.875 33.253906 159.875 34.351562 159.875 35.449219 C 161.707031 35.8125 163.171875 36.359375 164.636719 36.726562 Z M 164.636719 36.726562 " fill-opacity="1" fill-rule="nonzero"/><path fill="#9aedb6" d="M 82.226562 83.667969 C 82.226562 84.582031 81.675781 84.949219 81.125 84.035156 L 77.097656 79.285156 C 76.363281 78.554688 75.265625 78.371094 74.535156 79.101562 L 69.589844 83.121094 C 68.855469 83.667969 68.125 83.484375 68.125 82.390625 L 68.125 27.957031 C 68.125 26.863281 68.855469 26.316406 69.953125 26.496094 L 80.761719 28.507812 C 81.675781 28.6875 82.589844 29.601562 82.589844 30.699219 Z M 82.226562 83.667969 " fill-opacity="1" fill-rule="nonzero"/><g clip-path="url(#id1)"><path fill="#78633f" d="M 165.917969 38.917969 L 165.554688 38.917969 L 165.554688 36.726562 C 165.554688 36.359375 165.371094 35.996094 164.820312 35.8125 C 163.355469 35.449219 162.074219 35.082031 160.609375 34.71875 L 160.609375 32.160156 C 160.609375 31.792969 160.425781 31.429688 159.875 31.246094 C 148.886719 27.777344 137.167969 26.132812 125.261719 26.132812 C 117.570312 26.132812 108.78125 27.59375 102.738281 28.6875 C 95.960938 29.96875 92.847656 30.699219 91.566406 31.246094 C 88.816406 30.332031 85.886719 29.601562 82.957031 29.054688 C 82.589844 28.324219 81.675781 27.777344 80.941406 27.59375 L 70.136719 25.585938 C 69.40625 25.402344 68.671875 25.585938 68.125 26.132812 C 67.941406 26.316406 67.757812 26.496094 67.574219 26.679688 C 64.09375 26.316406 60.796875 26.132812 57.320312 26.132812 C 57.136719 26.132812 56.953125 26.132812 56.953125 26.132812 C 45.230469 26.132812 33.695312 27.957031 22.707031 31.246094 C 22.339844 31.429688 22.15625 31.792969 22.15625 32.160156 L 22.15625 34.71875 C 20.691406 35.082031 19.410156 35.449219 17.945312 35.8125 C 17.578125 35.996094 17.394531 36.359375 17.394531 36.726562 L 17.394531 38.917969 L 17.027344 38.917969 C 14.464844 38.917969 12.449219 40.925781 12.449219 43.484375 L 12.449219 119.835938 C 12.449219 122.390625 14.464844 124.402344 17.027344 124.402344 L 165.917969 124.402344 C 168.484375 124.402344 170.496094 122.390625 170.496094 119.835938 L 170.496094 43.484375 C 170.496094 40.925781 168.484375 38.917969 165.917969 38.917969 Z M 165.554688 39.832031 L 165.554688 39.101562 C 165.738281 39.285156 165.738281 39.648438 165.554688 39.832031 Z M 160.425781 118.554688 C 160.609375 118.375 160.792969 118.191406 160.792969 117.824219 L 160.792969 36.542969 C 161.707031 36.726562 162.804688 37.089844 163.722656 37.273438 L 163.722656 120.75 C 160.058594 120.019531 147.054688 117.824219 127.828125 117.460938 C 113.175781 117.277344 97.792969 120.382812 92.296875 121.480469 L 92.296875 119.46875 C 96.875 118.375 111.527344 115.085938 125.445312 115.269531 C 146.691406 115.632812 159.507812 118.738281 159.507812 118.738281 C 159.875 118.738281 160.242188 118.738281 160.425781 118.554688 Z M 163.171875 122.574219 L 96.875 122.574219 C 104.019531 121.113281 116.289062 119.105469 128.011719 119.285156 C 146.875 119.652344 159.507812 121.84375 163.171875 122.574219 Z M 125.261719 27.957031 C 125.445312 27.957031 125.628906 27.957031 125.628906 27.957031 C 136.984375 27.957031 148.15625 29.601562 158.960938 32.890625 L 158.960938 116.730469 C 155.296875 116 143.394531 113.808594 125.628906 113.441406 C 111.894531 113.257812 97.609375 116.363281 92.480469 117.460938 L 92.480469 32.890625 C 92.480469 32.890625 92.480469 32.890625 92.480469 32.707031 C 95.777344 31.976562 112.261719 27.957031 125.261719 27.957031 Z M 69.039062 27.957031 C 69.039062 27.777344 69.039062 27.59375 69.222656 27.410156 C 69.40625 27.226562 69.589844 27.226562 69.773438 27.226562 L 80.578125 29.238281 C 81.125 29.417969 81.675781 29.96875 81.675781 30.515625 L 81.308594 82.9375 L 77.828125 78.738281 C 77.28125 78.007812 76.546875 77.824219 75.632812 77.824219 C 75.082031 77.824219 74.351562 78.007812 73.800781 78.371094 L 68.855469 82.390625 L 68.855469 27.957031 Z M 23.988281 32.890625 C 34.609375 29.785156 45.597656 28.140625 56.953125 27.957031 C 60.433594 27.957031 63.910156 28.140625 67.390625 28.324219 L 67.390625 82.390625 C 67.390625 83.667969 68.125 84.035156 68.308594 84.21875 C 68.671875 84.398438 69.40625 84.582031 70.320312 83.851562 L 75.265625 79.832031 C 75.632812 79.46875 76.183594 79.652344 76.546875 80.015625 L 80.394531 84.765625 C 80.941406 85.496094 81.492188 85.496094 81.859375 85.496094 C 82.042969 85.496094 82.226562 85.496094 82.226562 85.496094 C 82.589844 85.3125 83.140625 84.949219 83.140625 83.851562 L 83.507812 31.246094 C 85.886719 31.792969 88.269531 32.34375 90.648438 33.074219 C 90.648438 33.074219 90.648438 33.074219 90.648438 33.253906 L 90.648438 118.191406 C 88.636719 117.460938 78.5625 113.988281 59.332031 113.441406 C 57.867188 113.441406 56.402344 113.441406 54.9375 113.441406 C 39.003906 113.441406 27.46875 116.546875 23.988281 117.644531 Z M 19.226562 37.457031 C 20.140625 37.089844 21.242188 36.910156 22.15625 36.726562 L 22.15625 118.554688 C 22.15625 118.921875 22.339844 119.105469 22.523438 119.285156 C 22.707031 119.46875 23.070312 119.46875 23.4375 119.46875 C 23.621094 119.46875 38.089844 114.355469 59.332031 115.085938 C 80.027344 115.816406 90.285156 119.835938 90.285156 120.019531 C 90.464844 120.019531 90.464844 120.019531 90.648438 120.019531 L 90.648438 122.390625 C 88.816406 121.660156 78.011719 118.191406 57.136719 117.460938 C 55.488281 117.460938 54.023438 117.460938 52.558594 117.460938 C 35.523438 117.460938 23.070312 120.566406 19.226562 121.660156 Z M 85.703125 122.574219 L 21.242188 122.574219 C 26.734375 121.113281 39.738281 118.554688 56.953125 119.105469 C 71.054688 119.46875 80.578125 121.296875 85.703125 122.574219 Z M 14.28125 119.835938 L 14.28125 43.484375 C 14.28125 42.023438 15.5625 40.746094 17.027344 40.746094 L 17.394531 40.746094 L 17.394531 122.574219 C 17.394531 122.574219 17.394531 122.574219 17.394531 122.757812 L 17.027344 122.757812 C 15.378906 122.574219 14.28125 121.480469 14.28125 119.835938 Z M 168.667969 119.835938 C 168.667969 121.296875 167.382812 122.574219 165.917969 122.574219 L 165.371094 122.574219 C 165.554688 122.390625 165.738281 122.210938 165.738281 122.027344 L 165.738281 40.746094 L 166.101562 40.746094 C 167.566406 40.746094 168.851562 42.023438 168.851562 43.484375 L 168.851562 119.835938 Z M 168.667969 119.835938 " fill-opacity="1" fill-rule="nonzero"/></g></svg>